<?xml version="1.0" encoding="utf-8"?>
<!-- Generator: Adobe Illustrator 18.1.1, SVG Export Plug-In . SVG Version: 6.00 Build 0)  -->
<svg version="1.1" id="Layer_1" xmlns="http://www.w3.org/2000/svg" xmlns:xlink="http://www.w3.org/1999/xlink" x="0px" y="0px"
	 viewBox="0 0 50 47.3" enable-background="new 0 0 50 47.3" xml:space="preserve">
<g>
	<path fill="none" stroke="#FFFFFF" stroke-width="3" stroke-miterlimit="10" d="M12.4,10.5c1,0,1.8-0.8,1.8-1.8V3.3
		c0-1-0.8-1.8-1.8-1.8s-1.8,0.8-1.8,1.8v5.4C10.5,9.7,11.4,10.5,12.4,10.5z M46.7,6h-5.4v2.7c0,2-1.6,3.6-3.6,3.6
		c-2,0-3.6-1.6-3.6-3.6V6H16v2.7c0,2-1.6,3.6-3.6,3.6s-3.6-1.6-3.6-3.6V6H3.3c-1,0-1.8,0.8-1.8,1.8V44c0,1,0.8,1.8,1.8,1.8h43.4
		c1,0,1.8-0.8,1.8-1.8V7.8C48.5,6.8,47.7,6,46.7,6z M44.9,41.3c0,0.5-0.4,0.9-0.9,0.9H6c-0.5,0-0.9-0.4-0.9-0.9V17.8
		c0-0.5,0.4-0.9,0.9-0.9h38c0.5,0,0.9,0.4,0.9,0.9V41.3z M37.7,10.5c1,0,1.8-0.8,1.8-1.8V3.3c0-1-0.8-1.8-1.8-1.8s-1.8,0.8-1.8,1.8
		v5.4C35.9,9.7,36.7,10.5,37.7,10.5z"/>
	<path fill="none" stroke="#FFFFFF" stroke-width="3" stroke-miterlimit="10" d="M35.1,21.9c-1.1-1.1-2.6-1.7-4.1-1.7
		c-1.5,0-3,0.6-4.1,1.7l-0.6,0.6c-0.7,0.7-1.9,0.7-2.6,0l-0.6-0.6c-1.1-1.1-2.6-1.7-4.1-1.7c-1.5,0-3,0.6-4.1,1.7
		c-2.3,2.3-2.3,5.9,0,8.2l8.8,8.8c0.7,0.7,1.9,0.7,2.6,0l8.8-8.8C37.3,27.8,37.3,24.1,35.1,21.9z"/>
</g>
</svg>
