<?xml version="1.0" encoding="utf-8"?>
<!-- Generator: Adobe Illustrator 18.1.1, SVG Export Plug-In . SVG Version: 6.00 Build 0)  -->
<svg version="1.1" id="Layer_1" xmlns="http://www.w3.org/2000/svg" xmlns:xlink="http://www.w3.org/1999/xlink" x="0px" y="0px"
	 viewBox="0 0 40.3 34.4" enable-background="new 0 0 40.3 34.4" xml:space="preserve">
<g>
	<path fill="#FFFFFF" d="M24.9,34.4H9.6c-5.3,0-9.6-4.3-9.6-9.6V9.6C0,4.3,4.3,0,9.6,0h15.3c5.3,0,9.6,4.3,9.6,9.6V12l5.9,3.4
		l-5.9,6.4v3C34.4,30.1,30.1,34.4,24.9,34.4z M9.6,2.7c-3.8,0-6.9,3.1-6.9,6.9v15.3c0,3.8,3.1,6.9,6.9,6.9h15.3
		c3.8,0,6.9-3.1,6.9-6.9v-4l4.3-4.8l-4.3-2.5v-4c0-3.8-3.1-6.9-6.9-6.9H9.6z"/>
</g>
<path fill="#FFFFFF" d="M24.1,12.5c-0.8-0.8-1.8-1.1-2.8-1.1c-1,0-2,0.4-2.8,1.1l-0.4,0.4c-0.5,0.5-1.3,0.5-1.7,0L16,12.5
	c-0.8-0.8-1.8-1.1-2.8-1.1c-1,0-2,0.4-2.8,1.1c-1.5,1.5-1.5,4,0,5.5l6,6c0.5,0.5,1.3,0.5,1.7,0l6-6C25.6,16.5,25.6,14,24.1,12.5z"/>
</svg>
