<svg xmlns="http://www.w3.org/2000/svg" viewBox="0 0 320.35 228.24"><defs><style>.a{fill:#e41b23;}.a,.c{fill-rule:evenodd;}.b,.c{fill:#fff;}</style></defs><title>Doves</title><path class="a" d="M170.64,39.92l15.73-12.47c4.12-3.27,4.9-9.76,1.18-13.48h0c-3.19-3.19-8-3.82-11.56-1l-5.35,4.26L165.29,13c-3.52-2.8-8.37-2.18-11.56,1h0c-3.72,3.72-2.94,10.21,1.18,13.48l15.73,12.47h0Z" transform="translate(-10.46 -11.18)"/><path class="b" d="M330.81,128.9H247.27V84.26a26.52,26.52,0,0,0-8.35-19.19,28.54,28.54,0,0,0-19.74-7.89h0a28.54,28.54,0,0,0-19.74,7.89,26.61,26.61,0,0,0-8.3,17.68l-14.4,4.9h0a10.63,10.63,0,0,0,1.5.92L191.1,96.5v69.83c0,22.82,18.11,41.76,41.2,44.21v23.78a5.09,5.09,0,0,0,10.19,0V210.82H248v23.51a5.09,5.09,0,1,0,10.19,0V210.82h55.28V197a65,65,0,0,0-4.68-24.19C321.54,162.06,330.81,146.51,330.81,128.9Zm-27.58,71.73H237.39c-19.86,0-36.11-15.44-36.11-34.31V84.26a16.41,16.41,0,0,1,5.16-11.87,18.38,18.38,0,0,1,12.74-5h0a18.38,18.38,0,0,1,12.74,5,16.41,16.41,0,0,1,5.16,11.87v74.87a28.15,28.15,0,0,0,8.85,20.38c13.58,13,35.91,10.81,54.25-.48a55.06,55.06,0,0,1,3,18v3.59Z" transform="translate(-10.46 -11.18)"/><path class="b" d="M211.27,85.23a2.54,2.54,0,1,0-4.53,2.29,8.63,8.63,0,0,0,3.66,3.74,9.43,9.43,0,0,0,8.59.1,8.54,8.54,0,0,0,3.7-3.61,2.54,2.54,0,1,0-4.47-2.39,3.49,3.49,0,0,1-1.52,1.47,4.32,4.32,0,0,1-3.91,0,3.57,3.57,0,0,1-1.51-1.55h0Z" transform="translate(-10.46 -11.18)"/><path class="c" d="M150.12,82.74a26.6,26.6,0,0,0-8.3-17.68,28.54,28.54,0,0,0-19.74-7.89h0a28.53,28.53,0,0,0-19.74,7.89A26.52,26.52,0,0,0,94,84.26V128.9H10.46c0,17.6,9.26,33.16,22.07,43.94A65.05,65.05,0,0,0,27.85,197v13.77H83.13v23.51a5.09,5.09,0,1,0,10.18,0V210.82h5.47v23.51a5.09,5.09,0,1,0,10.18,0V210.54c23.09-2.46,41.2-21.4,41.2-44.22V96.5L163,88.58a10.51,10.51,0,0,0,1.5-.92h0ZM140,134v32.33c0,18.87-16.25,34.31-36.11,34.31H38V197a55,55,0,0,1,3-18c18.34,11.29,40.67,13.47,54.25.48a28.14,28.14,0,0,0,8.85-20.38V84.26a16.41,16.41,0,0,1,5.16-11.87,18.38,18.38,0,0,1,12.74-5h0a18.39,18.39,0,0,1,12.74,5A16.41,16.41,0,0,1,140,84.26V134Z" transform="translate(-10.46 -11.18)"/><path class="b" d="M134.53,87.52A2.54,2.54,0,1,0,130,85.23a3.58,3.58,0,0,1-1.51,1.55,4.32,4.32,0,0,1-3.91,0,3.48,3.48,0,0,1-1.51-1.47,2.54,2.54,0,0,0-4.48,2.39,8.54,8.54,0,0,0,3.7,3.61,9.43,9.43,0,0,0,8.59-.1,8.63,8.63,0,0,0,3.66-3.74h0Z" transform="translate(-10.46 -11.18)"/></svg>