<?xml version="1.0" encoding="utf-8"?>
<!-- Generator: Adobe Illustrator 18.1.1, SVG Export Plug-In . SVG Version: 6.00 Build 0)  -->
<svg version="1.1" id="Layer_1" xmlns="http://www.w3.org/2000/svg" xmlns:xlink="http://www.w3.org/1999/xlink" x="0px" y="0px"
	 viewBox="0 0 42.8 41.7" enable-background="new 0 0 42.8 41.7" xml:space="preserve">
<path fill="none" stroke="#EDEDED" stroke-width="3" stroke-miterlimit="10" d="M36.7,13.7V8h-7.3l-8-6.1l-8,6.1H6.1v5.7l-4.6,3.5
	v23h39.8v-23L36.7,13.7z M31.8,29.4l-0.9,1.2l-9.5-7.3l-9.5,7.3L11,29.4l3.1-2.4L3.6,18.8l0.9-1.2L7.6,20V9.5h27.6V20l3.1-2.4
	l0.9,1.2L28.7,27L31.8,29.4z"/>
<path fill="none" stroke="#EDEDED" stroke-width="3" stroke-miterlimit="10" d="M28,18.5c-0.8,0-1.6,0.3-2.2,0.9l-0.3,0.3
	c-0.4,0.4-1,0.4-1.4,0l-0.3-0.3c-0.6-0.6-1.4-0.9-2.2-0.9c-0.8,0-1.6,0.3-2.2,0.9c-1.2,1.2-1.2,3.2,0,4.4l2.8,2.8l2.7-2.1l2.7,2.1
	l2.8-2.8c1.2-1.2,1.2-3.2,0-4.4C29.6,18.8,28.8,18.5,28,18.5z"/>
</svg>
