<svg xmlns="http://www.w3.org/2000/svg" viewBox="0 0 221.85 213.31"><defs><style>.a{fill:#fff;}.b{fill:#023a7b;}.c{fill:#e41b23;}</style></defs><title>Untitled-3</title><polygon class="a" points="196.25 65.64 196.25 34.13 155.29 34.13 110.92 0 66.55 34.13 25.6 34.13 25.6 65.64 0 85.33 0 213.31 221.85 213.31 221.85 85.33 196.25 65.64"/><polygon class="b" points="168.98 153.35 163.78 160.12 110.92 119.45 58.06 160.12 52.86 153.35 70.06 140.12 11.57 94.38 16.83 87.65 34.13 101.19 34.13 42.66 187.72 42.66 187.72 101.19 205.02 87.65 210.28 94.38 151.78 140.12 168.98 153.35"/><path class="c" d="M138.67,76.1a20.92,20.92,0,0,0-14.86,6.12l-2.17,2.17a6.56,6.56,0,0,1-9.28,0l-2.17-2.17A21,21,0,0,0,80.46,112l18.47,18.47L117,116.53l18.07,13.9L153.54,112A21,21,0,0,0,138.67,76.1Z" transform="translate(-6.08 -7.84)"/></svg>