<?xml version="1.0" encoding="utf-8"?>
<!-- Generator: Adobe Illustrator 18.1.1, SVG Export Plug-In . SVG Version: 6.00 Build 0)  -->
<svg version="1.1" id="Layer_1" xmlns="http://www.w3.org/2000/svg" xmlns:xlink="http://www.w3.org/1999/xlink" x="0px" y="0px"
	 viewBox="0 0 35.4 40.4" enable-background="new 0 0 35.4 40.4" xml:space="preserve">
<path fill="#FFFFFF" d="M31.8,9.7c-0.6,0-1.2-0.1-1.8,0c-1.2,0.1-1.4-0.3-1.1-1.5c0.7-3.1-0.2-5.6-2.7-7.1c-2.4-1.5-5-1.4-7.3,0.3
	c-1,0.7-1.6,0.6-2.4-0.1c-1.3-1-2.8-1.5-4.5-1.2C7.9,0.8,5.6,4,6.5,7.9C6.9,9.5,6.4,9.8,5,9.7c-0.3,0-0.7,0-1,0c-2.9,0.1-4,1.2-4,4
	c0,7.6,0,15.2,0,22.9c0,2.8,1.1,3.9,3.9,3.9c4.6,0,9.2,0,13.8,0c2.3,0,4.7,0,7,0s4.7,0,7,0c2.4,0,3.6-1.2,3.6-3.6
	c0-7.8,0-15.6,0-23.5C35.3,11,34.2,9.8,31.8,9.7z M21.2,3.5c1.3-0.7,2.5-0.5,3.5,0.4c1,0.8,1.5,1.9,1.1,3.2
	c-0.3,1.3-1.1,2.3-2.5,2.4c-0.5,0.1-1,0.2-1.6,0.2c-2.4,0.2-2.4,0.1-2.4-2.5C19.1,5.9,19.5,4.4,21.2,3.5z M12.7,3.2
	c2.1,0,3.3,1.6,3.3,4.7c0.2,1.2,0,2.1-1.8,2c-3-0.2-4.9-1.3-4.9-3.4C9.4,4.8,11,3.2,12.7,3.2z M15,37.2c-3.5,0-7.1,0-10.6,0
	c-0.9,0-1.2-0.3-1.2-1.2c0-4.6,0-9.1,0-13.7c0-0.7,0.1-1.2,1-1.2c1.7,0,3.4,0,5.4,0c-0.7,1.7-1.3,3.2-2,4.9c2.5-0.5,4.3,0.1,5,2.9
	c1.2-2.3,2.1-4.3,3.1-6.2c0.1,0,0.2,0,0.3,0c0,4.5,0,9,0,13.5C16.1,37,15.6,37.2,15,37.2z M30.6,37.2c-3.3-0.1-6.6,0-9.8,0
	c-1,0-1.6-0.2-1.4-1.3c0-0.4,0-0.8,0-1.2c0-3.9,0-7.9,0-11.8c0.1,0,0.2,0,0.4-0.1c1,2,2,3.9,3.1,6.2c0.7-2.8,2.5-3.4,5-2.9
	c-0.7-1.8-1.3-3.2-1.9-4.7c0.3-0.1,0.4-0.2,0.5-0.2c5.8-0.4,5.8-0.4,5.8,5.4c0,3-0.1,6,0,9C32.2,36.8,31.8,37.2,30.6,37.2z
	 M29.2,17.9c-3.9,0-7.8,0-11.6,0c-4.1,0-8.3-0.1-12.4,0c-1.4,0-2-0.3-2-1.9c0.2-3.4-0.3-2.9,2.9-2.9c7.8,0,15.5,0,23.3,0
	c3.1,0,2.6-0.4,2.9,2.5C32.5,18.4,30.7,17.9,29.2,17.9z"/>
</svg>
