<svg id="Layer_1" data-name="Layer 1" xmlns="http://www.w3.org/2000/svg" viewBox="0 0 247.83 22.11"><defs><style>.cls-1{fill:#023a7b;}</style></defs><title>Heart_Divide_Line</title><path class="cls-1" d="M331.35,415.78a6.62,6.62,0,0,0-1.72-5.93h0a6.61,6.61,0,0,0-8.89-.78l-4.11,3.27-4.11-3.27a6.61,6.61,0,0,0-8.89.78h0a6.62,6.62,0,0,0-1.72,5.93H191v0.53H302a7.31,7.31,0,0,0,2.51,3.91l12.09,9.59,12.09-9.59a7.31,7.31,0,0,0,2.5-3.91H438.88v-0.53H331.35Z" transform="translate(-191.05 -407.71)"/><path class="cls-1" d="M293,416.41h-5.41a0.46,0.46,0,0,0-.42.49,0.47,0.47,0,0,0,.42.49H293a0.47,0.47,0,0,0,.42-0.49A0.46,0.46,0,0,0,293,416.41Z" transform="translate(-191.05 -407.71)"/><path class="cls-1" d="M342.37,416.41H337a0.46,0.46,0,0,0-.42.49,0.47,0.47,0,0,0,.42.49h5.41a0.47,0.47,0,0,0,.42-0.49A0.46,0.46,0,0,0,342.37,416.41Z" transform="translate(-191.05 -407.71)"/></svg>