<?xml version="1.0" encoding="iso-8859-1"?>
<!-- Generator: Adobe Illustrator 19.2.0, SVG Export Plug-In . SVG Version: 6.00 Build 0)  -->
<svg version="1.1" id="Layer_1" xmlns="http://www.w3.org/2000/svg" xmlns:xlink="http://www.w3.org/1999/xlink" x="0px" y="0px"
	 viewBox="0 0 129 188" style="enable-background:new 0 0 129 188;" xml:space="preserve">
<path style="fill:#EDEDED;" d="M63.432,21.842c13.46-12.479,26.079-15.143,39.819-8.693c11.637,5.608,17.106,15.002,15.143,27.201
	c-16.685-10.235-34.632-15.703-54.401-15.563c-19.91,0-37.997,5.328-54.401,15.844c-4.206-7.291,0.14-18.367,9.674-24.817
	C33.287,6.279,48.99,8.382,63.432,21.842z"/>
<path style="fill:#EDEDED;" d="M15.48,53.389c28.603-22.013,72.629-19.489,96.324-0.28c-2.944,3.085-5.889,6.309-8.833,9.254
	c-31.968-15.984-49.494-15.844-78.237,0.561C21.65,59.839,18.705,56.755,15.48,53.389z"/>
<path style="fill:#EDEDED;" d="M72.265,89.143c-3.365,2.664-5.889,4.767-8.833,7.01c-2.664-2.243-5.048-4.206-7.992-6.59
	C61.189,86.619,66.096,87.04,72.265,89.143z"/>
<path style="fill:#EDEDED;" d="M100.102,77.322l-6.897,6.819c11.819,8.832,19.47,22.934,19.47,38.823
	c0,26.75-21.685,48.436-48.436,48.436c-26.75,0-48.436-21.685-48.436-48.436c0-15.588,7.372-29.446,18.81-38.306l-6.478-5.923
	C14.231,89.038,5,106.014,5,124.649c0,31.232,27.358,56.754,58.59,56.754s59.887-25.054,59.887-56.287
	C123.478,106.564,113.901,87.634,100.102,77.322z"/>
<path style="fill:#EDEDED;" d="M84.828,78.881l7.628-7.542C74.637,61.063,55.653,58.413,36.022,71.23l8.471,7.746
	c6.165-2.849,13.024-4.449,20.262-4.449C71.917,74.528,78.711,76.091,84.828,78.881z"/>
</svg>
