<?xml version="1.0" encoding="utf-8"?>
<!-- Generator: Adobe Illustrator 18.1.1, SVG Export Plug-In . SVG Version: 6.00 Build 0)  -->
<svg version="1.1" id="Layer_1" xmlns="http://www.w3.org/2000/svg" xmlns:xlink="http://www.w3.org/1999/xlink" x="0px" y="0px"
	 viewBox="0 0 69.9 57.8" enable-background="new 0 0 69.9 57.8" xml:space="preserve">
<path fill="none" stroke="#8EBBC4" stroke-width="4" stroke-miterlimit="10" d="M63.1,6.7C60,3.6,55.8,2,51.7,2
	c-4.2,0-8.3,1.6-11.5,4.7l-1.7,1.7c-2,2-5.2,2-7.2,0l-1.7-1.7C26.5,3.6,22.4,2,18.2,2C14,2,9.9,3.6,6.7,6.7
	c-6.3,6.3-6.3,16.6,0,22.9l24.6,24.6c2,2,5.2,2,7.2,0l24.6-24.6C69.4,23.4,69.4,13,63.1,6.7z"/>
</svg>
