<?xml version="1.0" encoding="utf-8"?>
<!-- Generator: Adobe Illustrator 18.1.1, SVG Export Plug-In . SVG Version: 6.00 Build 0)  -->
<svg version="1.1" id="Layer_1" xmlns="http://www.w3.org/2000/svg" xmlns:xlink="http://www.w3.org/1999/xlink" x="0px" y="0px"
	 viewBox="0 0 34.2 33" enable-background="new 0 0 34.2 33" xml:space="preserve">
<path fill="none" stroke="#EDEDED" stroke-miterlimit="10" d="M29.8,10.4V5.7h-6.1l-6.6-5.1l-6.6,5.1H4.3v4.7l-3.8,2.9v19.1h33.2
	V13.4L29.8,10.4z M25.8,23.6l-0.8,1l-7.9-6.1l-7.9,6.1l-0.8-1l2.6-2l-8.7-6.8l0.8-1l2.6,2V7h23v8.7l2.6-2l0.8,1l-8.7,6.8L25.8,23.6z
	"/>
<path fill="none" stroke="#EDEDED" stroke-miterlimit="10" d="M20.3,10.8c-0.8,0-1.6,0.3-2.2,0.9l-0.3,0.3c-0.4,0.4-1,0.4-1.4,0
	l-0.3-0.3c-0.6-0.6-1.4-0.9-2.2-0.9c-0.8,0-1.6,0.3-2.2,0.9c-1.2,1.2-1.2,3.2,0,4.4l2.8,2.8l2.7-2.1l2.7,2.1l2.8-2.8
	c1.2-1.2,1.2-3.2,0-4.4C21.9,11.1,21.1,10.8,20.3,10.8z"/>
</svg>
