<?xml version="1.0" encoding="utf-8"?>
<!-- Generator: Adobe Illustrator 18.1.1, SVG Export Plug-In . SVG Version: 6.00 Build 0)  -->
<svg version="1.1" id="Layer_1" xmlns="http://www.w3.org/2000/svg" xmlns:xlink="http://www.w3.org/1999/xlink" x="0px" y="0px"
	 viewBox="0 0 156.9 156.9" enable-background="new 0 0 156.9 156.9" xml:space="preserve">
<circle fill="none" stroke="#FFFFFF" stroke-miterlimit="10" cx="78.5" cy="78.5" r="78"/>
<g>
	<path fill="#FFFFFF" d="M78,38.1c8.5-7.9,16.5-9.6,25.2-5.5c7.4,3.5,10.8,9.5,9.6,17.2c-10.6-6.5-21.9-9.9-34.4-9.8
		c-12.6,0-24,3.4-34.4,10C41.2,45.4,44,38.4,50,34.3C58.9,28.3,68.8,29.6,78,38.1z"/>
	<path fill="#FFFFFF" d="M47.6,58.1c18.1-13.9,45.9-12.3,60.9-0.2c-1.9,2-3.7,4-5.6,5.9c-20.2-10.1-31.3-10-49.5,0.4
		C51.5,62.2,49.7,60.2,47.6,58.1z"/>
	<path fill="#FFFFFF" d="M83.5,80.7c-2.1,1.7-3.7,3-5.6,4.4c-1.7-1.4-3.2-2.7-5.1-4.2C76.5,79.1,79.6,79.4,83.5,80.7z"/>
	<path fill="#FFFFFF" d="M101.1,73.2l-4.4,4.3c7.5,5.6,12.3,14.5,12.3,24.6c0,16.9-13.7,30.6-30.6,30.6c-16.9,0-30.6-13.7-30.6-30.6
		c0-9.9,4.7-18.6,11.9-24.2l-4.1-3.7c-8.8,6.5-14.6,17.3-14.6,29c0,19.8,17.3,35.9,37.1,35.9s37.9-15.8,37.9-35.6
		C115.9,91.7,109.9,79.7,101.1,73.2z"/>
	<path fill="#FFFFFF" d="M91.5,74.2l4.8-4.8C85,62.9,73,61.3,60.6,69.4l5.4,4.9c3.9-1.8,8.2-2.8,12.8-2.8
		C83.3,71.5,87.6,72.4,91.5,74.2z"/>
</g>
</svg>
