<svg id="Layer_1" data-name="Layer 1" xmlns="http://www.w3.org/2000/svg" viewBox="0 0 371.93 342.52"><defs><style>.cls-1{fill:#023a7b;}</style></defs><title>Untitled-3</title><path class="cls-1" d="M361.91,196.88c-6.13,69.06-11.93,136.23-18.17,203.35-1.56,16.78-8.46,22-24.28,22-16,.07-20.23-9.9-21.45-23.24q-9-98.36-18.14-196.72c-1.77-19.17,4.16-25.93,23.42-26.23,12.55-.19,25.11-0.32,37.65,0C356.22,176.47,362.48,183.52,361.91,196.88Z" transform="translate(-133.74 -175.89)"/><path class="cls-1" d="M282.28,479.33c0.24-21.49,17.55-38.25,39.24-38,20.55,0.25,37.8,17.46,38,37.91,0.21,20.84-17.81,39-38.77,39.16S282,500.59,282.28,479.33Z" transform="translate(-133.74 -175.89)"/><path class="cls-1" d="M504.36,300.7c6.59-40.95-11.77-72.48-50.83-91.31-26.52-12.45-51.8-14.76-77.09-6.53q-2.18,24.63-4.33,49C419,258.59,462.86,275.25,504.36,300.7Z" transform="translate(-133.74 -175.89)"/><path class="cls-1" d="M265,204.19c-31.71-10.68-63.66-6-93.36,14.15-32,21.65-46.59,58.83-32.47,83.31q60.5-38.78,130.29-49.34l-1-11.22Z" transform="translate(-133.74 -175.89)"/><path class="cls-1" d="M158.9,344.48c10.83,11.3,20.71,21.65,31.06,32,32.32-18.44,60.41-30.75,87.51-37q-2-21.77-4-43.45C232.37,302.89,192.47,318.64,158.9,344.48Z" transform="translate(-133.74 -175.89)"/><path class="cls-1" d="M452.59,374.6c9.88-9.88,19.77-20.71,29.65-31.06-30.3-24.57-70.52-41-114-47.84-1.33,15-2.65,29.85-4,44.64C390.76,346.56,419.35,358,452.59,374.6Z" transform="translate(-133.74 -175.89)"/><path class="cls-1" d="M354.56,418.26A161.78,161.78,0,0,1,391.69,430l25.61-25.32c-18.54-10.69-37.46-18.92-56.7-23.91q-1,10.38-1.92,20.81A51,51,0,0,1,354.56,418.26Z" transform="translate(-133.74 -175.89)"/><path class="cls-1" d="M281.22,380.23c-17.6,4.55-35.4,12.41-53.36,24.13l28.44,26a161.79,161.79,0,0,1,31.77-10.84,53.21,53.21,0,0,1-5-19.12Z" transform="translate(-133.74 -175.89)"/></svg>