<?xml version="1.0" encoding="utf-8"?>
<!-- Generator: Adobe Illustrator 18.1.1, SVG Export Plug-In . SVG Version: 6.00 Build 0)  -->
<svg version="1.1" id="Layer_1" xmlns="http://www.w3.org/2000/svg" xmlns:xlink="http://www.w3.org/1999/xlink" x="0px" y="0px"
	 viewBox="0 0 39.7 39.6" enable-background="new 0 0 39.7 39.6" xml:space="preserve">
<g>
	<path fill="#FFFFFF" d="M39.7,18.7c0,0.7,0,1.4,0,2.2c0,0.1-0.1,0.3-0.1,0.4c-0.1,0.6-0.1,1.1-0.2,1.7c-0.6,3.7-2.2,7.1-4.7,9.9
		c-3.2,3.6-7.2,5.8-12.1,6.6c-0.6,0.1-1.2,0.2-1.8,0.2c-0.7,0-1.4,0-2.2,0c-0.1,0-0.2-0.1-0.3-0.1c-2.4-0.2-4.7-0.8-6.9-1.7
		c-8-3.6-12.8-12.5-11.3-21.1c0.6-3.7,2.1-7.1,4.7-9.9c4.8-5.4,10.9-7.5,18-6.5c3.8,0.5,7.2,2.2,10.1,4.8c3.5,3.2,5.7,7.2,6.4,11.9
		C39.5,17.5,39.6,18.1,39.7,18.7z M36.4,19.8c0-9.1-7.4-16.5-16.5-16.5c-9.1,0-16.6,7.4-16.5,16.6c0,9.1,7.4,16.5,16.5,16.5
		C29,36.3,36.4,28.9,36.4,19.8z"/>
	<path fill="#FFFFFF" d="M29.3,28.7c-0.6,0.5-1.1,1-1.7,1.5c0,0-0.1-0.1-0.2-0.2c-3.2-2.9-6.4-5.7-9.6-8.6c-0.1-0.1-0.2-0.3-0.3-0.5
		c-0.3-1-0.1-2.1-0.1-3.1c0.2-3.8,0.4-7.6,0.6-11.3c0-0.1,0-0.1,0-0.2c0.7,0,1.4,0,2.1,0c0,0.7,0.1,1.3,0.1,1.9
		c0.1,2.7,0.3,5.3,0.4,8c0.1,1,0.1,2.1,0.2,3.1c0,0.2,0.1,0.4,0.3,0.5c2.6,2.8,5.2,5.6,7.8,8.4C29,28.5,29.1,28.6,29.3,28.7z"/>
</g>
</svg>
