<?xml version="1.0" encoding="iso-8859-1"?>
<!-- Generator: Adobe Illustrator 19.2.0, SVG Export Plug-In . SVG Version: 6.00 Build 0)  -->
<svg version="1.1" id="Layer_1" xmlns="http://www.w3.org/2000/svg" xmlns:xlink="http://www.w3.org/1999/xlink" x="0px" y="0px"
	 viewBox="0 0 22.99 22.99" style="enable-background:new 0 0 22.99 22.99;" xml:space="preserve">
<title>link</title>
<g>
	<path style="fill:#023A7B;" d="M9.71,10.68c-0.958-0.766-2.278-0.899-3.37-0.34c-0.297,0.152-0.57,0.348-0.81,0.58
		c-1.541,1.52-3.07,3.047-4.59,4.58c-1.237,1.231-1.242,3.232-0.011,4.469c0.004,0.004,0.007,0.007,0.011,0.011
		c0.667,0.667,1.357,1.357,2.07,2.07c1.231,1.237,3.232,1.242,4.469,0.011c0.004-0.004,0.007-0.007,0.011-0.011
		c1.54-1.527,3.073-3.06,4.6-4.6c1.118-1.131,1.221-2.918,0.24-4.17l-0.14,0.13l-1.49,1.5c-0.054,0.08-0.094,0.167-0.12,0.26
		c-0.046,0.157-0.117,0.306-0.21,0.44c-1.527,1.54-3.06,3.077-4.6,4.61c-0.227,0.257-0.618,0.281-0.875,0.055
		c-0.02-0.017-0.038-0.036-0.055-0.055l-2.05-2.05c-0.257-0.227-0.281-0.618-0.055-0.875c0.017-0.02,0.035-0.038,0.055-0.055
		c1.533-1.533,3.066-3.067,4.6-4.6c0.111-0.102,0.25-0.168,0.4-0.19c0.126-0.011,0.243-0.068,0.33-0.16L9.71,10.68z"/>
	<path style="fill:#023A7B;" d="M10.69,9.72l0.64-0.66l1.09-1.1c0.053-0.073,0.093-0.154,0.12-0.24c0.042-0.157,0.11-0.305,0.2-0.44
		c1.533-1.547,3.069-3.087,4.61-4.62c0.232-0.251,0.625-0.267,0.876-0.034c0.012,0.011,0.023,0.022,0.034,0.034l2.07,2.07
		c0.254,0.229,0.274,0.622,0.044,0.876c-0.014,0.015-0.029,0.03-0.044,0.044c-1.533,1.54-3.073,3.077-4.62,4.61
		c-0.14,0.094-0.296,0.161-0.46,0.2c-0.061,0.013-0.118,0.037-0.17,0.07l-1.8,1.79l0.18,0.14c1.222,0.832,2.859,0.698,3.93-0.32
		c1.6-1.56,3.18-3.14,4.74-4.74c1.167-1.215,1.167-3.135,0-4.35c-0.713-0.733-1.433-1.453-2.16-2.16
		c-1.221-1.181-3.159-1.181-4.38,0c-1.573,1.547-3.133,3.107-4.68,4.68c-1.051,1.083-1.189,2.759-0.33,4L10.69,9.72z"/>
	<path style="fill:#023A7B;" d="M7.79,16.32c0.395,0.029,0.782-0.118,1.06-0.4l1.52-1.52l5.54-5.55
		c0.495-0.49,0.499-1.287,0.009-1.782c-0.449-0.453-1.166-0.5-1.669-0.108l-0.14,0.13l-7,7c-0.389,0.335-0.536,0.874-0.37,1.36
		C6.877,15.929,7.294,16.274,7.79,16.32z"/>
</g>
</svg>
