<?xml version="1.0" encoding="iso-8859-1"?>
<!-- Generator: Adobe Illustrator 19.2.0, SVG Export Plug-In . SVG Version: 6.00 Build 0)  -->
<svg version="1.1" id="Layer_1" xmlns="http://www.w3.org/2000/svg" xmlns:xlink="http://www.w3.org/1999/xlink" x="0px" y="0px"
	 viewBox="0 0 46.93 53.66" style="enable-background:new 0 0 46.93 53.66;" xml:space="preserve">
<title>gift</title>
<path style="fill:#023A7B;" d="M42.23,12.83c-0.795-0.067-1.595-0.067-2.39,0c-1.61,0.17-1.88-0.37-1.52-1.94
	c1-4.1-0.29-7.38-3.61-9.46c-2.945-2.063-6.906-1.908-9.68,0.38c-1.27,0.95-2.11,0.75-3.25-0.12c-1.686-1.353-3.868-1.924-6-1.57
	c-5.27,0.87-8.39,5.22-7.16,10.42c0.5,2.11-0.11,2.5-1.93,2.28c-0.443-0.032-0.887-0.032-1.33,0c-3.82,0.08-5.34,1.59-5.34,5.33
	c0,10.114,0,20.227,0,30.34c0,3.67,1.48,5.15,5.16,5.16c6.12,0,12.24,0,18.36,0h9.31c3.107,0,6.21,0,9.31,0
	c3.17,0,4.74-1.6,4.74-4.76c0-10.38,0-20.76,0-31.14C46.9,14.59,45.38,13.04,42.23,12.83z M28.14,4.71
	c1.511-0.866,3.413-0.625,4.66,0.59c1.314,0.969,1.908,2.639,1.5,4.22c-0.252,1.719-1.642,3.046-3.37,3.22
	c-0.7,0.08-1.39,0.26-2.08,0.32c-3.18,0.27-3.25,0.19-3.24-3.26c-0.396-2.07,0.634-4.15,2.52-5.09H28.14z M16.92,4.21
	c2.81-0.05,4.42,2.15,4.41,6.29c0.25,1.57,0,2.76-2.4,2.62c-4-0.22-6.45-1.72-6.47-4.46c0.12-2.406,2.043-4.33,4.45-4.45H16.92z
	 M19.92,49.31c-4.71,0-9.42,0-14.12,0c-0.714,0.146-1.412-0.315-1.557-1.03c-0.038-0.185-0.035-0.376,0.007-0.56
	c0-6,0-12.08,0-18.12c0-0.91,0.18-1.56,1.29-1.54c2.28,0,4.55,0,7.15,0L10,34.62c3.36-0.67,5.71,0.18,6.7,3.82l4.15-8.25l0.45,0.05
	c0,5.96,0,11.917,0,17.87c0.061,0.615-0.39,1.164-1.005,1.224c-0.123,0.012-0.246,0.004-0.366-0.024H19.92z M40.53,49.31
	c-4.35-0.09-8.71-0.06-13.06,0c-1.3,0-2.07-0.29-1.91-1.77c0.029-0.533,0.029-1.067,0-1.6c0-5.227,0-10.453,0-15.68l0.47-0.08
	l4.15,8.27c0.95-3.69,3.34-4.48,6.67-3.86l-2.53-6.21c0.199-0.128,0.415-0.229,0.64-0.3c7.66-0.56,7.66-0.56,7.66,7.13
	c0,4-0.07,8,0,12c0.1,1.67-0.45,2.17-2.07,2.14L40.53,49.31z M38.75,23.69c-5.15,0-10.3,0-15.45,0c-5.5,0-11-0.07-16.51,0
	c-1.92,0-2.68-0.4-2.59-2.48c0.21-4.55-0.41-3.86,3.79-3.87c10.3-0.033,20.597-0.033,30.89,0c4.16,0,3.42-0.48,3.82,3.34
	s-1.91,3.04-3.93,3.05L38.75,23.69z"/>
</svg>
