<?xml version="1.0" encoding="iso-8859-1"?>
<!-- Generator: Adobe Illustrator 19.2.0, SVG Export Plug-In . SVG Version: 6.00 Build 0)  -->
<svg version="1.1" id="Layer_1" xmlns="http://www.w3.org/2000/svg" xmlns:xlink="http://www.w3.org/1999/xlink" x="0px" y="0px"
	 viewBox="0 0 47.63 47.58" style="enable-background:new 0 0 47.63 47.58;" xml:space="preserve">
<title>event</title>
<g>
	<path style="fill:#023A7B;" d="M47.63,22.47v2.6c0,0.16-0.07,0.33-0.09,0.49c-0.08,0.66-0.11,1.33-0.22,2
		c-1.667,10.265-9.799,18.262-20.09,19.76c-0.7,0.1-1.4,0.18-2.11,0.27h-2.6c-0.131-0.041-0.265-0.071-0.4-0.09
		c-2.848-0.195-5.637-0.906-8.23-2.1C4.204,40.928-1.337,30.569,0.32,20.03c0.668-4.427,2.615-8.563,5.6-11.9
		c5.333-6.249,13.563-9.228,21.66-7.84c4.528,0.645,8.752,2.654,12.11,5.76c4.188,3.699,6.912,8.776,7.68,14.31
		C47.46,21.06,47.54,21.77,47.63,22.47z M43.63,23.75C43.619,12.787,34.723,3.909,23.76,3.92C12.797,3.931,3.919,12.827,3.93,23.79
		c0.011,10.955,8.895,19.83,19.85,19.83c10.963,0.022,19.868-8.847,19.89-19.81c0-0.013,0-0.027,0-0.04L43.63,23.75z"/>
	<path style="fill:#023A7B;" d="M35.13,34.49l-2,1.84c0,0-0.14-0.1-0.24-0.19c-3.86-3.427-7.713-6.86-11.56-10.3
		c-0.155-0.157-0.262-0.355-0.31-0.57c-0.21-1.24-0.233-2.503-0.07-3.75c0.23-4.53,0.48-9.07,0.73-13.6c0-0.06,0-0.12,0-0.22h2.48
		c0,0.78,0.1,1.55,0.14,2.32c0.167,3.2,0.333,6.403,0.5,9.61c0.06,1.24,0.12,2.48,0.21,3.71c0.035,0.237,0.144,0.457,0.31,0.63
		c3.12,3.333,6.247,6.69,9.38,10.07L35.13,34.49z"/>
</g>
</svg>
