<?xml version="1.0" encoding="utf-8"?>
<!-- Generator: Adobe Illustrator 18.1.1, SVG Export Plug-In . SVG Version: 6.00 Build 0)  -->
<svg version="1.1" id="Layer_1" xmlns="http://www.w3.org/2000/svg" xmlns:xlink="http://www.w3.org/1999/xlink" x="0px" y="0px"
	 viewBox="0 0 84.3 65.7" enable-background="new 0 0 84.3 65.7" xml:space="preserve">
<g opacity="0.82">
	<path fill="#EDEDED" d="M42.2,9.2C52.4-0.3,62-2.3,72.5,2.6C81.3,6.8,85.5,14,84,23.3c-12.7-7.8-26.3-11.9-41.4-11.8
		c-15.1,0-28.9,4.1-41.4,12.1C-2,17.9,1.3,9.5,8.6,4.6C19.2-2.6,31.2-1,42.2,9.2z"/>
	<path fill="#EDEDED" d="M5.7,33.2C27.5,16.4,61,18.4,79,33c-2.2,2.3-4.5,4.8-6.7,7C47.9,27.9,34.6,28,12.7,40.5
		C10.4,38.1,8.2,35.8,5.7,33.2z"/>
	<path fill="#EDEDED" d="M48.9,60.4c-2.6,2-4.5,3.6-6.7,5.3c-2-1.7-3.8-3.2-6.1-5C40.5,58.5,44.2,58.8,48.9,60.4z"/>
	<path fill="#EDEDED" d="M58.5,52.6l5.8-5.7c-13.6-7.8-28-9.8-42.9-0.1l6.4,5.9c4.7-2.2,9.9-3.4,15.4-3.4
		C48.6,49.3,53.8,50.5,58.5,52.6z"/>
</g>
</svg>
