<?xml version="1.0" encoding="iso-8859-1"?>
<!-- Generator: Adobe Illustrator 19.2.0, SVG Export Plug-In . SVG Version: 6.00 Build 0)  -->
<svg version="1.1" id="Layer_1" xmlns="http://www.w3.org/2000/svg" xmlns:xlink="http://www.w3.org/1999/xlink" x="0px" y="0px"
	 viewBox="0 0 41.75 32.55" style="enable-background:new 0 0 41.75 32.55;" xml:space="preserve">
<title>heart</title>
<g>
	<path style="fill:#023A7B;" d="M20.9,4.55c5.07-4.7,9.83-5.71,15-3.28c4.38,2.11,6.45,5.65,5.71,10.25
		c-6.132-3.874-13.247-5.907-20.5-5.86c-7.273-0.048-14.4,2.039-20.5,6c-1.58-2.75,0.05-6.92,3.65-9.35
		C9.54-1.31,15.44-0.52,20.9,4.55z"/>
	<path style="fill:#023A7B;" d="M2.83,16.44C13.61,8.15,30.2,9.1,39.12,16.33c-1.11,1.16-2.22,2.38-3.33,3.49
		c-12-6-18.65-6-29.48,0.21C5.15,18.87,4.04,17.7,2.83,16.44z"/>
	<path style="fill:#023A7B;" d="M24.22,29.95c-1.27,1-2.22,1.8-3.33,2.64c-1-0.85-1.9-1.58-3-2.48
		C20.05,28.95,21.9,29.12,24.22,29.95z"/>
	<path style="fill:#023A7B;" d="M28.96,26.04l2.87-2.84c-6.71-3.87-13.87-4.87-21.26,0l3.19,2.92
		C18.574,23.883,24.123,23.854,28.96,26.04z"/>
</g>
</svg>
