<?xml version="1.0" encoding="iso-8859-1"?>
<!-- Generator: Adobe Illustrator 19.2.0, SVG Export Plug-In . SVG Version: 6.00 Build 0)  -->
<svg version="1.1" id="Layer_1" xmlns="http://www.w3.org/2000/svg" xmlns:xlink="http://www.w3.org/1999/xlink" x="0px" y="0px"
	 viewBox="0 0 29.97 25.62" style="enable-background:new 0 0 29.97 25.62;" xml:space="preserve">
<title>chat</title>
<g>
	<path style="fill:#023A7B;" d="M18.49,25.62H7.13C3.195,25.615,0.006,22.426,0,18.49V7.13C0.006,3.195,3.195,0.006,7.13,0h11.36
		c3.936,0.006,7.125,3.195,7.13,7.13v1.82l4.35,2.51l-4.35,4.79v2.24C25.615,22.426,22.426,25.615,18.49,25.62z M7.13,1.98
		c-2.844,0-5.15,2.306-5.15,5.15v11.36c0,2.844,2.306,5.15,5.15,5.15h11.36c2.844,0,5.15-2.306,5.15-5.15v-3l3.21-3.54l-3.21-1.86
		v-3c0-2.844-2.306-5.15-5.15-5.15H7.13V1.98z"/>
</g>
<path style="fill:#023A7B;" d="M17.89,9.27c-1.143-1.135-2.987-1.135-4.13,0l-0.3,0.3c-0.354,0.356-0.931,0.358-1.287,0.003
	c-0.001-0.001-0.002-0.002-0.003-0.003l-0.3-0.3c-1.141-1.14-2.989-1.14-4.13,0s-1.141,2.99,0,4.13l4.43,4.43
	c0.354,0.356,0.931,0.358,1.287,0.003c0.001-0.001,0.002-0.002,0.003-0.003l4.43-4.43C19.035,12.255,19.041,10.407,17.89,9.27z"/>
</svg>
