<svg xmlns="http://www.w3.org/2000/svg" viewBox="0 0 265.09 63.48"><defs><style>.a{fill:#023a7b;}</style></defs><title>Web_Wed_Logo_Black</title><path class="a" d="M1910.76,227.6c-16,0-29.14,13.37-29.14,29.85s13.14,29.85,29.14,29.85,29.14-13.37,29.14-29.85S1926.76,227.6,1910.76,227.6Zm25.08,40.12-0.24-.48-8.36,4.78,0.72-7.16,0.24-.24,3.82-5.25,3.82,8.36h0ZM1895,249.81l0.72,0.24,1.19-6,4.06-11.7,8.84,3.82-7.4,4.78,0.72,1.19,0.72-.48h12.66l1.43,0.24,7.64,8.6v0.72L1926,263.9l-10,9.31-10.51.72-1.67-1.43h-7.16l0.24-.24-1.19-6,3.58,2.63,0.24-1-8.84-10.75h0l4.78-6.69Zm17.2,29.14,4.54-4.06,8.36-.48-4.3,8.36Zm-1.19-.72-3.34-2.63,6.93-.48Zm-1.67.72-8.36,2.87-4.06-7.4h6.69Zm16.24-6.21-6.93.48,7.64-6.93Zm-14.81-35.35,4.3,2.87h-8.84Zm7.16,3.1-5.73-4.06,8.6-4.06,3.82,8.84Zm13.61,16.24-4.54-7.64-0.72-5.49,8.36,4.3-3.1,8.84h0Zm-6.45-13.61,0.48,5.25-5.25-5.73Zm2.63,19.58-0.24-10.27,3.58,5.73Zm8.6-14.33a22.93,22.93,0,0,1,1.43,7.88l-4.3.24Zm-9.31-6.21,3.58-3.34a23.59,23.59,0,0,1,5,7.64Zm-1.19-1-3.58-8.6a26.22,26.22,0,0,1,7.4,5.25ZM1911.72,235l-0.24-5a21,21,0,0,1,7.88,1.43Zm-1.43-.24-7.88-3.58a38.57,38.57,0,0,1,7.88-1.43v5Zm-14.09,7.4-3.1-5.25a30.34,30.34,0,0,1,6.45-4.3Zm-6.93,16-3.82,7.88a44.36,44.36,0,0,1-1.43-8.12Zm-5.25-1.91a25,25,0,0,1,1.67-8.6l3.58,8.84Zm6.45,2.39,3.34,4.78,1.67,8.6-0.24.24L1886.4,267Zm9.31,23.64a26.7,26.7,0,0,1-6.93-4.54l2.63-3.1Zm10.51-2.15v4.54a25,25,0,0,1-8.6-1.67Zm1.43,0.24,7.4,3.34a25.29,25.29,0,0,1-7.4,1.19v-4.54Zm14.57-5.73,2.87,2.63a26.32,26.32,0,0,1-6.69,4.78Zm6.69-16.48,4.78-.24a28.6,28.6,0,0,1-1.19,7.88Zm-40.84-20.3,3.58,6-1.19,5.49-4.06,6-3.58-9.31,3.82-2.39-1,1.43-2.39-.48A18.24,18.24,0,0,1,1892.13,237.87Zm-5.73,31,7.88,4.78-2.63,3.1A34.89,34.89,0,0,1,1886.4,268.92Zm43.94,7.4-3.1-2.87,7.88-4.3A28.87,28.87,0,0,1,1930.34,276.32Z" transform="translate(-1777.5 -223.83)"/><rect class="a" y="15.71" width="100.3" height="1.43"/><rect class="a" y="52.01" width="100.3" height="1.43"/><rect class="a" x="166.22" y="15.71" width="98.87" height="1.43"/><rect class="a" x="166.22" y="52.01" width="98.87" height="1.43"/><path class="a" d="M1816.43,246.94c0,0.24-.24.24-1.19,0.24a1.6,1.6,0,0,0-1.67,1,19.33,19.33,0,0,0-1.19,3.58c-1,3.34-1.91,6-2.63,8.36-1.19,3.82-2.63,7.64-3.58,11.22a0.83,0.83,0,0,1-.24.48l-0.24-.24c0-.24-0.48-1-1-2.39-0.72-1.91-1.19-3.82-1.91-5.49-0.48-1.43-1.19-3.1-1.67-4.54-1.43,4.06-3.1,8.12-4.54,12.66a0.83,0.83,0,0,1-.24.48,3,3,0,0,1-.48-0.72c-0.72-1.67-3.34-9.08-7.64-21.73a3.68,3.68,0,0,0-.72-1.67,1.48,1.48,0,0,0-1.19-.24c-1.19,0-1.67-.24-1.67-0.48s0.24-.24.48-0.24h0.48c1.19,0,2.39.24,3.82,0.24h4.3a0.83,0.83,0,0,1,.48.24c0,0.24-.24.48-1,0.48-1.43,0-2.15.24-2.15,0.48,0,0.72,2.15,6.93,6.21,18.63,1.43-4.06,2.63-6.93,3.34-8.84l-3.34-9.08a3.3,3.3,0,0,0-.72-1,1.79,1.79,0,0,0-1.19-.24,1.4,1.4,0,0,1-1-.24,0.6,0.6,0,0,1,.72-0.48h10a13.7,13.7,0,0,0,2.87-.24h0.48a1,1,0,0,1,.72.24c0,0.24-.24.24-0.48,0.24h-0.48a4.77,4.77,0,0,0-2.15.48,6.5,6.5,0,0,0-1.19,2.63c-0.24.72-.72,1.67-1.43,3.34-0.24.24-.24,1-0.72,1.67a29.48,29.48,0,0,1,1.43,4.06c1,2.63,1.91,5,2.63,7.16q1.79-5.73,4.3-13.61a30.91,30.91,0,0,0,1.43-4.78c0-.48-0.48-0.72-1.19-0.72-1.19,0-1.67-.24-1.67-0.48s0.24-.24.72-0.24h6v-0.24Zm-13.85.48h-1a1.12,1.12,0,0,0-1.19.48s0.72,2.15,1.91,6.21a26.63,26.63,0,0,0,1.67-4.78,1.81,1.81,0,0,1,.48-1v-0.24C1804.49,247.66,1803.77,247.42,1802.58,247.42Z" transform="translate(-1777.5 -223.83)"/><path class="a" d="M1840.79,265.57v6c-2.15-.24-6.45-0.24-12.9-0.24h-3.82c-0.48,0-.72,0-0.72-0.24s0-.24.24-0.24h1.19a0.93,0.93,0,0,0,1-.48,2.64,2.64,0,0,0,.24-1.67V248.62c0-.72,0-1.19-0.24-1.19a2.64,2.64,0,0,0-1.67-.24c-0.24,0-.48,0-0.48-0.24s0.24-.24.72-0.24h14.33a5.26,5.26,0,0,0,1.91-.24c0,1,.24,2.39.24,4.3l0.24,1.43v0.48c0,0.24,0,.24-0.24.24s-0.48-.24-0.48-1c-0.48-2.15-1.19-3.58-2.15-4.06-0.72-.48-2.63-0.72-5.49-0.72H1830v10.51h0.72c2.39,0,4.06-.24,4.54-0.72a6.68,6.68,0,0,0,1.19-3.58,1,1,0,0,1,.24-0.72c0.24,0,.24.24,0.24,0.72v3.82a27.75,27.75,0,0,0,.24,5.25v0.72a0.83,0.83,0,0,1-.24.48c-0.24,0-.24,0-0.24-0.24a12.86,12.86,0,0,1-.24-1.91,3.08,3.08,0,0,0-1.67-2.63,9.09,9.09,0,0,0-3.1-.24h-1.43v11.94c4.78,0,7.64-.24,8.6-0.24,1.43-.24,2.15-1.91,2.39-4.54,0-.72.24-1,0.48-1C1840.79,264.86,1840.79,265.09,1840.79,265.57Z" transform="translate(-1777.5 -223.83)"/><path class="a" d="M1865.62,264.86a5.3,5.3,0,0,1-3.1,5.25,13.47,13.47,0,0,1-4.3,1.19h-8.6c-0.24,0-.48,0-0.48-0.24s0.24-.24,1-0.24a2.19,2.19,0,0,0,1.43-.24,2.64,2.64,0,0,0,.24-1.67V249.81c0-1,0-1.67-.24-1.67a2.28,2.28,0,0,0-1.67-.48,1.4,1.4,0,0,1-1-.24,1,1,0,0,1,.72-0.24h0.48c0.24,0,.48.24,0.72,0.24h6.69a9.44,9.44,0,0,1,5.25,1.19,4.82,4.82,0,0,1,2.15,4.3,5.24,5.24,0,0,1-1.67,4.06,8.77,8.77,0,0,1-4.78,1.91v0.24a12.54,12.54,0,0,1,4.78,1.43C1864.91,260.8,1865.62,262.47,1865.62,264.86Zm-4.54-12.18c0-2.15-.48-3.82-1.43-4.54a4.15,4.15,0,0,0-2.87-.72,5.38,5.38,0,0,0-1.67.24v10.27h2.15a3.4,3.4,0,0,0,2.87-1.43A6.51,6.51,0,0,0,1861.09,252.68Zm1,11.94c0-3.1-1.19-4.78-3.34-5.49a14.85,14.85,0,0,0-3.82-.24v10.51c0,0.72,0,1.19.24,1.19,0.24,0.24.72,0.24,1.91,0.24a4.3,4.3,0,0,0,3.58-1.67C1861.8,268,1862,266.53,1862,264.62Z" transform="translate(-1777.5 -223.83)"/><path class="a" d="M1979.3,246.94c0,0.24-.24.24-1.19,0.24a1.6,1.6,0,0,0-1.67,1,19.32,19.32,0,0,0-1.19,3.58c-1,3.34-1.91,6-2.63,8.36-1.19,3.82-2.63,7.64-3.58,11.22a0.83,0.83,0,0,1-.24.48l-0.24-.24c0-.24-0.48-1-1-2.39-0.72-1.91-1.19-3.82-1.91-5.49-0.48-1.43-1.19-3.1-1.67-4.54-1.43,4.06-3.1,8.12-4.54,12.66a0.83,0.83,0,0,1-.24.48,3,3,0,0,1-.48-0.72c-0.72-1.67-3.34-9.08-7.64-21.73a3.68,3.68,0,0,0-.72-1.67,1.48,1.48,0,0,0-1.19-.24c-1,0-1.67-.24-1.67-0.48s0.24-.24.48-0.24h0.48c1.19,0,2.39.24,3.82,0.24h4.3a0.83,0.83,0,0,1,.48.24c0,0.24-.24.48-1,0.48-1.43,0-2.15.24-2.15,0.48,0,0.72,2.15,6.93,6.21,18.63,1.43-4.06,2.63-6.93,3.34-8.84l-3.34-9.08a3.3,3.3,0,0,0-.72-1,1.79,1.79,0,0,0-1.19-.24,1.4,1.4,0,0,1-1-.24,0.6,0.6,0,0,1,.72-0.48h10a13.7,13.7,0,0,0,2.87-.24h0.48a1,1,0,0,1,.72.24c0,0.24-.24.24-0.48,0.24h-0.48a4.77,4.77,0,0,0-2.15.48,6.5,6.5,0,0,0-1.19,2.63c-0.24.72-.72,1.67-1.43,3.34-0.24.24-.24,1-0.72,1.67a29.48,29.48,0,0,1,1.43,4.06c1,2.63,1.91,5,2.63,7.16q1.79-5.73,4.3-13.61a30.92,30.92,0,0,0,1.43-4.78c0-.48-0.48-0.72-1.19-0.72-1.19,0-1.67-.24-1.67-0.48s0.24-.24.72-0.24h6v-0.24Zm-13.85.48h-1a1.12,1.12,0,0,0-1.19.48s0.72,2.15,1.91,6.21a26.63,26.63,0,0,0,1.67-4.78,1.81,1.81,0,0,1,.48-1v-0.24C1967.36,247.66,1966.64,247.42,1965.45,247.42Z" transform="translate(-1777.5 -223.83)"/><path class="a" d="M2003.66,265.57v6c-2.15-.24-6.45-0.24-12.9-0.24h-4.3c-0.48,0-.72,0-0.72-0.24s0-.24.24-0.24h1.19a0.93,0.93,0,0,0,1-.48,2.64,2.64,0,0,0,.24-1.67V248.62c0-.72,0-1.19-0.24-1.19a2.64,2.64,0,0,0-1.67-.24c-0.24,0-.48,0-0.48-0.24s0.24-.24.72-0.24H2001a5.26,5.26,0,0,0,1.91-.24c0,1,.24,2.39.24,4.3l0.24,1.43v0.48c0,0.24,0,.24-0.24.24s-0.48-.24-0.48-1c-0.48-2.15-1.19-3.58-2.15-4.06-0.72-.48-2.63-0.72-5.49-0.72h-2.63v10.51h0.72c2.39,0,4.06-.24,4.54-0.72a6.68,6.68,0,0,0,1.19-3.58,1,1,0,0,1,.24-0.72c0.24,0,.24.24,0.24,0.72v3.82a27.74,27.74,0,0,0,.24,5.25v0.72a0.83,0.83,0,0,1-.24.48c-0.24,0-.24,0-0.24-0.24a12.86,12.86,0,0,1-.24-1.91,3.08,3.08,0,0,0-1.67-2.63,9.09,9.09,0,0,0-3.1-.24h-1.43v11.94c4.78,0,7.64-.24,8.6-0.24,1.43-.24,2.15-1.91,2.39-4.54,0-.72.24-1,0.48-1C2003.66,264.86,2003.66,265.09,2003.66,265.57Z" transform="translate(-1777.5 -223.83)"/><path class="a" d="M2033.51,259.12a12.42,12.42,0,0,1-4.06,9.79,12.27,12.27,0,0,1-8.12,2.63h-9.08a1,1,0,0,1-.72-0.24c0-.24.24-0.24,1-0.24a2.28,2.28,0,0,0,1.67-.48,8.44,8.44,0,0,0,.24-1.43V250a4.16,4.16,0,0,0-.24-2.15,2.64,2.64,0,0,0-1.67-.24,0.6,0.6,0,0,1-.72-0.48c0-.24.24-0.24,0.48-0.24H2018c4.06,0,6.69.24,8.6,1a9.18,9.18,0,0,1,4.78,4.3A10.45,10.45,0,0,1,2033.51,259.12Zm-3.58-.24c0-4.06-.72-6.93-2.15-8.84s-3.82-2.63-6.69-2.63a4.86,4.86,0,0,0-2.63.48,2.64,2.64,0,0,0-.24,1.67v20.3a0.23,0.23,0,0,0,.24.24,8.86,8.86,0,0,0,3.34.48,7.27,7.27,0,0,0,5.73-2.63C2029,266,2029.93,262.94,2029.93,258.88Z" transform="translate(-1777.5 -223.83)"/><path class="a" d="M1972.38,225.21c0.48,3.1-5,2.63-6.93,3.1-6.21,1.43-11.7,5.25-16.72,9.08-9.08,7.4-15.28,17.43-22.21,26.75-1.43,1.91-15.76,21.49-18.63,17.91-1.43-1.67,3.1-6.93,4.06-8.84,2.63-6,3.82-12.42,5.49-18.63-5,7.16-9.55,14.57-15.28,21-1.67,1.91-8.12,10.27-11,9.31-4.3-1.19,4.78-11,6-13.14,3.34-6.45,8.12-16.24,6.45-23.88-2.15-8.84-11.94-5.49-17.2-1.43-6,4.78-12.18,13.37-11.22,21.49,1.19,8.84,10,6.69,14.81,1.91,1.91-2.15,11.94-17.2,4.54-18.39,3.1,5.25-7.88,8.36-7.16,1.43,0.72-7.16,11.22-6,12.9-.24,3.34,11.22-12.18,29.85-24.12,23.4-15-8.12,1-28.9,10-34.39,14.57-8.84,28.42,2.39,22.93,18.15,1.91-2.87,16.48-28.42,20.78-25.08,1.91,1.67-2.39,7.88-3.1,10.27-1.67,6.21-2.87,12.66-4.78,18.63,6.93-9.55,13.14-19.58,22-27.7a60.88,60.88,0,0,1,14.57-10c1.43,0.24,13.37-4.3,13.85-.72C1972.38,226.17,1972.14,223.78,1972.38,225.21Z" transform="translate(-1777.5 -223.83)"/></svg>