<svg id="Layer_1" data-name="Layer 1" xmlns="http://www.w3.org/2000/svg" viewBox="0 0 70.4 54.89"><defs><style>.cls-1{fill:#ededed;}</style></defs><title>Untitled-3</title><path class="cls-1" d="M307.17,376.83c8.55-7.93,16.57-9.62,25.3-5.52,7.39,3.56,10.87,9.53,9.62,17.28a63.94,63.94,0,0,0-34.56-9.89A62.7,62.7,0,0,0,273,388.77c-2.67-4.63.09-11.67,6.15-15.77C288,366.94,298,368.28,307.17,376.83Z" transform="translate(-271.94 -369.15)"/><path class="cls-1" d="M276.7,396.87c18.17-14,46.14-12.38,61.2-.18-1.87,2-3.74,4-5.61,5.88-20.31-10.16-31.45-10.07-49.71.36C280.62,401,278.75,399,276.7,396.87Z" transform="translate(-271.94 -369.15)"/><path class="cls-1" d="M312.78,419.59c-2.14,1.69-3.74,3-5.61,4.45-1.69-1.43-3.21-2.67-5.08-4.19C305.74,418,308.86,418.25,312.78,419.59Z" transform="translate(-271.94 -369.15)"/><path class="cls-1" d="M320.76,413.07l4.85-4.79c-11.32-6.53-23.38-8.21-35.86-.07l5.38,4.92A30.76,30.76,0,0,1,320.76,413.07Z" transform="translate(-271.94 -369.15)"/></svg>